<svg xmlns="http://www.w3.org/2000/svg" viewBox="0 0 1200 1200">
  <defs>
    <linearGradient id="bg" x1="0%" y1="0%" x2="100%" y2="100%">
      <stop offset="0%" stop-color="#052e16" />
      <stop offset="100%" stop-color="#14532d" />
    </linearGradient>
  </defs>
  <rect width="1200" height="1200" fill="url(#bg)" />
  <circle cx="948" cy="244" r="172" fill="#fff" opacity="0.08" />
  <path d="M208 721c88-30 162-45 224-45 74 0 141 24 202 73 19 14 40 21 64 21h164c38 0 57 18 57 53 0 15-6 28-18 39-12 11-27 16-44 16H606c-26 0-48-7-67-20l-103-70c-19-13-43-20-71-20-36 0-88 10-157 29v-76z" fill="#f8fafc"/>
  <path d="M507 703c62 16 133 24 212 24" stroke="#22c55e" stroke-width="18" stroke-linecap="round" opacity="0.45"/>
  <text x="88" y="140" fill="#fff" font-family="Arial, sans-serif" font-size="54" font-weight="700" letter-spacing="12">NIKE</text>
  <text x="88" y="995" fill="#fff" font-family="Arial, sans-serif" font-size="94" font-weight="700">Air Zoom Pegasus 41</text>
  <text x="88" y="1066" fill="#fff" opacity="0.8" font-family="Arial, sans-serif" font-size="34" letter-spacing="7">RESPONSIVE DAILY TRAINER</text>
</svg>
